<mxfile host="app.diagrams.net" modified="2023-02-26T18:41:03.347Z" agent="5.0 (Windows NT 10.0; Win64; x64) AppleWebKit/537.36 (KHTML, like Gecko) Chrome/110.0.0.0 Safari/537.36" etag="VjTaaZAz-iWHrPeNliaQ" version="20.8.23" type="github">
  <diagram id="C5RBs43oDa-KdzZeNtuy" name="Page-1">
    <mxGraphModel dx="1323" dy="1916" grid="1" gridSize="10" guides="1" tooltips="1" connect="1" arrows="1" fold="1" page="1" pageScale="1" pageWidth="827" pageHeight="1169" math="0" shadow="0">
      <root>
        <mxCell id="WIyWlLk6GJQsqaUBKTNV-0" />
        <mxCell id="WIyWlLk6GJQsqaUBKTNV-1" parent="WIyWlLk6GJQsqaUBKTNV-0" />
        <mxCell id="lsqHR4O3voGMjDfET8ep-8" value="" style="edgeStyle=orthogonalEdgeStyle;rounded=0;orthogonalLoop=1;jettySize=auto;html=1;entryX=0.5;entryY=0;entryDx=0;entryDy=0;" edge="1" parent="WIyWlLk6GJQsqaUBKTNV-1" source="lsqHR4O3voGMjDfET8ep-2" target="lsqHR4O3voGMjDfET8ep-9">
          <mxGeometry relative="1" as="geometry" />
        </mxCell>
        <mxCell id="lsqHR4O3voGMjDfET8ep-2" value="Declare an arrayList&amp;nbsp;" style="rounded=1;whiteSpace=wrap;html=1;absoluteArcSize=1;arcSize=14;strokeWidth=2;" vertex="1" parent="WIyWlLk6GJQsqaUBKTNV-1">
          <mxGeometry x="314" y="120" width="100" height="100" as="geometry" />
        </mxCell>
        <mxCell id="lsqHR4O3voGMjDfET8ep-4" value="" style="edgeStyle=orthogonalEdgeStyle;rounded=0;orthogonalLoop=1;jettySize=auto;html=1;" edge="1" parent="WIyWlLk6GJQsqaUBKTNV-1" source="lsqHR4O3voGMjDfET8ep-3" target="lsqHR4O3voGMjDfET8ep-2">
          <mxGeometry relative="1" as="geometry" />
        </mxCell>
        <mxCell id="lsqHR4O3voGMjDfET8ep-3" value="Start" style="strokeWidth=2;html=1;shape=mxgraph.flowchart.start_1;whiteSpace=wrap;" vertex="1" parent="WIyWlLk6GJQsqaUBKTNV-1">
          <mxGeometry x="314" y="20" width="100" height="60" as="geometry" />
        </mxCell>
        <mxCell id="lsqHR4O3voGMjDfET8ep-6" value="" style="edgeStyle=orthogonalEdgeStyle;rounded=0;orthogonalLoop=1;jettySize=auto;html=1;" edge="1" parent="WIyWlLk6GJQsqaUBKTNV-1" source="lsqHR4O3voGMjDfET8ep-5" target="lsqHR4O3voGMjDfET8ep-3">
          <mxGeometry relative="1" as="geometry" />
        </mxCell>
        <mxCell id="lsqHR4O3voGMjDfET8ep-5" value="Algorithm that reads in 3 numbers &lt;br&gt;and writes them out in sorted order" style="strokeWidth=2;html=1;shape=mxgraph.flowchart.annotation_2;align=left;labelPosition=right;pointerEvents=1;" vertex="1" parent="WIyWlLk6GJQsqaUBKTNV-1">
          <mxGeometry x="510" width="50" height="100" as="geometry" />
        </mxCell>
        <mxCell id="lsqHR4O3voGMjDfET8ep-12" value="" style="edgeStyle=orthogonalEdgeStyle;rounded=0;orthogonalLoop=1;jettySize=auto;html=1;" edge="1" parent="WIyWlLk6GJQsqaUBKTNV-1" source="lsqHR4O3voGMjDfET8ep-7" target="lsqHR4O3voGMjDfET8ep-11">
          <mxGeometry relative="1" as="geometry" />
        </mxCell>
        <mxCell id="lsqHR4O3voGMjDfET8ep-7" value="Declare a temp variable for swap" style="rounded=1;whiteSpace=wrap;html=1;absoluteArcSize=1;arcSize=14;strokeWidth=2;" vertex="1" parent="WIyWlLk6GJQsqaUBKTNV-1">
          <mxGeometry x="314" y="360" width="100" height="100" as="geometry" />
        </mxCell>
        <mxCell id="lsqHR4O3voGMjDfET8ep-10" value="" style="edgeStyle=orthogonalEdgeStyle;rounded=0;orthogonalLoop=1;jettySize=auto;html=1;" edge="1" parent="WIyWlLk6GJQsqaUBKTNV-1" source="lsqHR4O3voGMjDfET8ep-9" target="lsqHR4O3voGMjDfET8ep-7">
          <mxGeometry relative="1" as="geometry" />
        </mxCell>
        <mxCell id="lsqHR4O3voGMjDfET8ep-9" value="Read 3 &lt;br&gt;integers &lt;br&gt;into it" style="shape=parallelogram;html=1;strokeWidth=2;perimeter=parallelogramPerimeter;whiteSpace=wrap;rounded=1;arcSize=12;size=0.23;" vertex="1" parent="WIyWlLk6GJQsqaUBKTNV-1">
          <mxGeometry x="314" y="260" width="100" height="60" as="geometry" />
        </mxCell>
        <mxCell id="lsqHR4O3voGMjDfET8ep-16" value="No" style="edgeStyle=orthogonalEdgeStyle;rounded=0;orthogonalLoop=1;jettySize=auto;html=1;" edge="1" parent="WIyWlLk6GJQsqaUBKTNV-1" source="lsqHR4O3voGMjDfET8ep-11" target="lsqHR4O3voGMjDfET8ep-15">
          <mxGeometry x="-0.2671" y="10" relative="1" as="geometry">
            <Array as="points">
              <mxPoint x="440" y="560" />
              <mxPoint x="440" y="560" />
            </Array>
            <mxPoint as="offset" />
          </mxGeometry>
        </mxCell>
        <mxCell id="lsqHR4O3voGMjDfET8ep-18" value="Yes" style="edgeStyle=orthogonalEdgeStyle;rounded=0;orthogonalLoop=1;jettySize=auto;html=1;" edge="1" parent="WIyWlLk6GJQsqaUBKTNV-1" source="lsqHR4O3voGMjDfET8ep-11" target="lsqHR4O3voGMjDfET8ep-17">
          <mxGeometry x="-0.2" y="16" relative="1" as="geometry">
            <mxPoint as="offset" />
          </mxGeometry>
        </mxCell>
        <mxCell id="lsqHR4O3voGMjDfET8ep-11" value="Is int a &amp;gt; int b" style="strokeWidth=2;html=1;shape=mxgraph.flowchart.decision;whiteSpace=wrap;" vertex="1" parent="WIyWlLk6GJQsqaUBKTNV-1">
          <mxGeometry x="314" y="510" width="100" height="100" as="geometry" />
        </mxCell>
        <UserObject label="" tooltip="" id="lsqHR4O3voGMjDfET8ep-14">
          <mxCell style="edgeStyle=orthogonalEdgeStyle;rounded=0;orthogonalLoop=1;jettySize=auto;html=1;entryX=0.751;entryY=0.253;entryDx=0;entryDy=0;entryPerimeter=0;" edge="1" parent="WIyWlLk6GJQsqaUBKTNV-1" source="lsqHR4O3voGMjDfET8ep-13" target="lsqHR4O3voGMjDfET8ep-11">
            <mxGeometry relative="1" as="geometry">
              <mxPoint x="460" y="470" as="targetPoint" />
            </mxGeometry>
          </mxCell>
        </UserObject>
        <mxCell id="lsqHR4O3voGMjDfET8ep-13" value="Iterate through two for loops&lt;br&gt;inside one another" style="strokeWidth=2;html=1;shape=mxgraph.flowchart.annotation_2;align=left;labelPosition=right;pointerEvents=1;" vertex="1" parent="WIyWlLk6GJQsqaUBKTNV-1">
          <mxGeometry x="510" y="420" width="50" height="100" as="geometry" />
        </mxCell>
        <mxCell id="lsqHR4O3voGMjDfET8ep-15" value="Print list" style="strokeWidth=2;html=1;shape=mxgraph.flowchart.display;whiteSpace=wrap;direction=west;" vertex="1" parent="WIyWlLk6GJQsqaUBKTNV-1">
          <mxGeometry x="485" y="530" width="100" height="60" as="geometry" />
        </mxCell>
        <mxCell id="lsqHR4O3voGMjDfET8ep-19" style="edgeStyle=orthogonalEdgeStyle;rounded=0;orthogonalLoop=1;jettySize=auto;html=1;entryX=0;entryY=0.5;entryDx=0;entryDy=0;entryPerimeter=0;exitX=0;exitY=0.5;exitDx=0;exitDy=0;" edge="1" parent="WIyWlLk6GJQsqaUBKTNV-1" source="lsqHR4O3voGMjDfET8ep-17" target="lsqHR4O3voGMjDfET8ep-11">
          <mxGeometry relative="1" as="geometry" />
        </mxCell>
        <mxCell id="lsqHR4O3voGMjDfET8ep-17" value="Swap values" style="rounded=1;whiteSpace=wrap;html=1;absoluteArcSize=1;arcSize=14;strokeWidth=2;" vertex="1" parent="WIyWlLk6GJQsqaUBKTNV-1">
          <mxGeometry x="314" y="660" width="100" height="100" as="geometry" />
        </mxCell>
      </root>
    </mxGraphModel>
  </diagram>
</mxfile>
